<mxfile host="Electron" agent="Mozilla/5.0 (Windows NT 10.0; Win64; x64) AppleWebKit/537.36 (KHTML, like Gecko) draw.io/26.2.2 Chrome/134.0.6998.178 Electron/35.1.2 Safari/537.36" version="26.2.2">
  <diagram name="Страница — 1" id="zLUopOnXVahy6k2I94R8">
    <mxGraphModel dx="1428" dy="849" grid="1" gridSize="10" guides="1" tooltips="1" connect="1" arrows="1" fold="1" page="1" pageScale="1" pageWidth="827" pageHeight="1169" math="0" shadow="0">
      <root>
        <mxCell id="0" />
        <mxCell id="1" parent="0" />
        <mxCell id="NGRhg0thVDykFxHhTELp-3" style="edgeStyle=orthogonalEdgeStyle;rounded=0;orthogonalLoop=1;jettySize=auto;html=1;entryX=0.5;entryY=0;entryDx=0;entryDy=0;" edge="1" parent="1" source="NGRhg0thVDykFxHhTELp-1" target="NGRhg0thVDykFxHhTELp-2">
          <mxGeometry relative="1" as="geometry" />
        </mxCell>
        <mxCell id="NGRhg0thVDykFxHhTELp-1" value="Клиенты" style="rounded=0;whiteSpace=wrap;html=1;fillColor=none;fontSize=16;" vertex="1" parent="1">
          <mxGeometry x="360" y="190" width="120" height="60" as="geometry" />
        </mxCell>
        <mxCell id="NGRhg0thVDykFxHhTELp-7" style="edgeStyle=orthogonalEdgeStyle;rounded=0;orthogonalLoop=1;jettySize=auto;html=1;entryX=0.5;entryY=0;entryDx=0;entryDy=0;" edge="1" parent="1" source="NGRhg0thVDykFxHhTELp-2" target="NGRhg0thVDykFxHhTELp-4">
          <mxGeometry relative="1" as="geometry" />
        </mxCell>
        <mxCell id="NGRhg0thVDykFxHhTELp-8" style="edgeStyle=orthogonalEdgeStyle;rounded=0;orthogonalLoop=1;jettySize=auto;html=1;entryX=0.5;entryY=0;entryDx=0;entryDy=0;" edge="1" parent="1" source="NGRhg0thVDykFxHhTELp-2" target="NGRhg0thVDykFxHhTELp-5">
          <mxGeometry relative="1" as="geometry" />
        </mxCell>
        <mxCell id="NGRhg0thVDykFxHhTELp-9" style="edgeStyle=orthogonalEdgeStyle;rounded=0;orthogonalLoop=1;jettySize=auto;html=1;entryX=0.5;entryY=0;entryDx=0;entryDy=0;" edge="1" parent="1" source="NGRhg0thVDykFxHhTELp-2" target="NGRhg0thVDykFxHhTELp-6">
          <mxGeometry relative="1" as="geometry" />
        </mxCell>
        <mxCell id="NGRhg0thVDykFxHhTELp-2" value="Очередь к приёмщицам" style="rounded=0;whiteSpace=wrap;html=1;fillColor=none;fontSize=16;" vertex="1" parent="1">
          <mxGeometry x="320" y="290" width="200" height="40" as="geometry" />
        </mxCell>
        <mxCell id="NGRhg0thVDykFxHhTELp-11" style="edgeStyle=orthogonalEdgeStyle;rounded=0;orthogonalLoop=1;jettySize=auto;html=1;entryX=0.25;entryY=0;entryDx=0;entryDy=0;" edge="1" parent="1" source="NGRhg0thVDykFxHhTELp-4" target="NGRhg0thVDykFxHhTELp-10">
          <mxGeometry relative="1" as="geometry">
            <Array as="points">
              <mxPoint x="280" y="490" />
              <mxPoint x="385" y="490" />
            </Array>
          </mxGeometry>
        </mxCell>
        <mxCell id="NGRhg0thVDykFxHhTELp-4" value="Приёмщица 1" style="rounded=0;whiteSpace=wrap;html=1;fillColor=none;fontSize=16;" vertex="1" parent="1">
          <mxGeometry x="220" y="400" width="120" height="60" as="geometry" />
        </mxCell>
        <mxCell id="NGRhg0thVDykFxHhTELp-12" style="edgeStyle=orthogonalEdgeStyle;rounded=0;orthogonalLoop=1;jettySize=auto;html=1;entryX=0.5;entryY=0;entryDx=0;entryDy=0;" edge="1" parent="1" source="NGRhg0thVDykFxHhTELp-5" target="NGRhg0thVDykFxHhTELp-10">
          <mxGeometry relative="1" as="geometry" />
        </mxCell>
        <mxCell id="NGRhg0thVDykFxHhTELp-5" value="Приёмщица 2" style="rounded=0;whiteSpace=wrap;html=1;fillColor=none;fontSize=16;" vertex="1" parent="1">
          <mxGeometry x="360" y="400" width="120" height="60" as="geometry" />
        </mxCell>
        <mxCell id="NGRhg0thVDykFxHhTELp-13" style="edgeStyle=orthogonalEdgeStyle;rounded=0;orthogonalLoop=1;jettySize=auto;html=1;entryX=0.75;entryY=0;entryDx=0;entryDy=0;" edge="1" parent="1" source="NGRhg0thVDykFxHhTELp-6" target="NGRhg0thVDykFxHhTELp-10">
          <mxGeometry relative="1" as="geometry">
            <Array as="points">
              <mxPoint x="560" y="490" />
              <mxPoint x="455" y="490" />
            </Array>
          </mxGeometry>
        </mxCell>
        <mxCell id="NGRhg0thVDykFxHhTELp-6" value="Приёмщица 3" style="rounded=0;whiteSpace=wrap;html=1;fillColor=none;fontSize=16;" vertex="1" parent="1">
          <mxGeometry x="500" y="400" width="120" height="60" as="geometry" />
        </mxCell>
        <mxCell id="NGRhg0thVDykFxHhTELp-15" style="edgeStyle=orthogonalEdgeStyle;rounded=0;orthogonalLoop=1;jettySize=auto;html=1;entryX=0.5;entryY=0;entryDx=0;entryDy=0;" edge="1" parent="1" source="NGRhg0thVDykFxHhTELp-10" target="NGRhg0thVDykFxHhTELp-14">
          <mxGeometry relative="1" as="geometry" />
        </mxCell>
        <mxCell id="NGRhg0thVDykFxHhTELp-10" value="Конвейер" style="rounded=0;whiteSpace=wrap;html=1;fillColor=none;fontSize=16;" vertex="1" parent="1">
          <mxGeometry x="350" y="520" width="140" height="50" as="geometry" />
        </mxCell>
        <mxCell id="NGRhg0thVDykFxHhTELp-14" value="Работница по выдаче" style="rounded=0;whiteSpace=wrap;html=1;fillColor=none;fontSize=16;" vertex="1" parent="1">
          <mxGeometry x="325" y="620" width="190" height="40" as="geometry" />
        </mxCell>
      </root>
    </mxGraphModel>
  </diagram>
</mxfile>
